inDegrees=yes
name=ik_lifting_orientations
DataType=double
version=3
OpenSimVersion=4.5-2024-01-10-34fd6af
endheader
time	pelvis_tilt	pelvis_list	pelvis_rotation	pelvis_tx	pelvis_ty	pelvis_tz	hip_flexion_r	hip_adduction_r	hip_rotation_r	knee_angle_r	knee_angle_r_beta	ankle_angle_r	subtalar_angle_r	mtp_angle_r	hip_flexion_l	hip_adduction_l	hip_rotation_l	knee_angle_l	knee_angle_l_beta	ankle_angle_l	subtalar_angle_l	mtp_angle_l	lumbar_extension	lumbar_bending	lumbar_rotation	arm_flex_r	arm_add_r	arm_rot_r	elbow_flex_r	pro_sup_r	wrist_flex_r	wrist_dev_r	arm_flex_l	arm_add_l	arm_rot_l	elbow_flex_l	pro_sup_l	wrist_flex_l	wrist_dev_l
0.02	0.00206949919911095	-0.001805443065567446	-89.98810940414803	0	0.9399999998679526	0	42.82736621305545	-13.7619147889343	0	57.35958534357178	1.00111362182401	-7.058722282658839	0	0	42.82736621305545	-13.7619147889343	0	57.35958534357178	1.00111362182401	-7.058722282658839	0	0	-0.008334404235976759	-0.00357250997400236	0.01488098820886561	-0.192327629431942	-0.04875859196578113	-0.0166617269332279	0.4218199536613935	7.595819857815451	0	0	0	-7.904523792033471	0	82.48943033695689	7.595819857815451	0	0
0.03	0.03670291690726446	0.01479903260408274	-90.09563027635927	0	0.9399999998679526	0	42.8666615619923	-13.5560833796957	0	57.39749423177913	1.001775256738999	-6.920204386802289	0	0	42.8666615619923	-13.5560833796957	0	57.39749423177913	1.001775256738999	-6.920204386802289	0	0	0.05850382622389865	-0.03675099557485827	0.03806950740828641	-0.3504192149613283	-0.06691278755376899	0.1223157358755012	0.6304766122636083	7.497880441306031	0	0	0	-7.972465133790354	0	82.5862553103692	7.497880441306031	0	0
0.04	0.05058104661102444	0.06515925457659767	-90.10182394718257	0	0.9399999998679526	0	42.97459668877481	-13.00482941932093	0	57.50185201578228	1.003596643669939	-6.553207159206074	0	0	42.97459668877481	-13.00482941932093	0	57.50185201578228	1.003596643669939	-6.553207159206074	0	0	0.08513703189024847	-0.09174177412372263	-0.1294845764292098	-0.4857232114491203	-0.04350338667293791	0.3875215289507054	1.000072093885974	7.228068764395614	0	0	0	-8.159988711175977	0	82.85299747791829	7.228068764395614	0	0
0.05	0.07333254255369136	0.05583625476582149	-90.23048747812618	0	0.9399999998679526	0	42.97497471796024	-13.00290568908458	0	57.50222497739318	1.003603153078033	-6.551920563632853	0	0	42.97497471796024	-13.00290568908458	0	57.50222497739318	1.003603153078033	-6.551920563632853	0	0	0.2372903245618957	-0.107391948415916	-0.1769439868827568	-0.419022639970691	0.0191296215064459	0.6365570921615303	0.5239831236003163	7.227118431714163	0	0	0	-8.16065294857974	0	82.8539370025477	7.227118431714163	0	0
0.06	0.1153774875190272	-0.001535395777521904	-90.45826468418807	0	0.9399999998679526	0	42.97521307348016	-13.00170855819671	0	57.50246253214336	1.003607299190577	-6.551121890181242	0	0	42.97521307348016	-13.00170855819671	0	57.50246253214336	1.003607299190577	-6.551121890181242	0	0	0.1884021346340604	-0.1576099868085943	-0.08064548485812385	-0.4241023146445133	0.07596138892623916	0.8070206718951811	0.5014198741141588	7.226516914349694	0	0	0	-8.161074816159294	0	82.85453168077383	7.226516914349694	0	0
0.07000000000000001	0.1576125867168423	-0.04734188261754199	-90.6028067591963	0	0.9399999998679526	0	43.02413824736385	-12.78019184620194	0	57.55029968055737	1.004442214935167	-6.409880322505562	0	0	43.02413824736385	-12.78019184620194	0	57.55029968055737	1.004442214935167	-6.409880322505562	0	0	0.1346577614640464	-0.2375048782463494	-0.05160598932318653	-0.4205691596337909	0.132464470156568	0.9832240993936568	0.4807081382099548	7.102314134823083	0	0	0	-8.248283428543031	0	82.97732337915343	7.102314134823083	0	0
0.08	0.1801245275548578	-0.04890570580710851	-90.75328391345347	0	0.9399999998679526	0	43.07779557044924	-12.55309952105335	0	57.60311531826989	1.005364021709791	-6.268493925716918	0	0	43.07779557044924	-12.55309952105335	0	57.60311531826989	1.005364021709791	-6.268493925716918	0	0	0.2094680648901951	-0.2349639544145343	0.02840898694571845	-0.7444418927716709	0.05322343467347117	1.123621667326105	0.9504449799320048	6.964874998176013	0	0	0	-8.345359529066322	0	83.11320219802289	6.964874998176013	0	0
0.09	0.2238632198601346	-0.02263196298401083	-90.80904656754174	0	0.9399999998679526	0	43.12041073537428	-12.37622766650723	0	57.64514373708065	1.006097555997446	-6.159124814394954	0	0	43.12041073537428	-12.37622766650723	0	57.64514373708065	1.006097555997446	-6.159124814394954	0	0	0.2779866413158085	-0.2643953194902676	0.09294337885407992	-0.5380351263632193	0.1140271295200096	1.149369871420714	0.4437650157551379	6.855426938247895	0	0	0	-8.422799331878851	0	83.22140794148949	6.855426938247895	0	0
0.1	0.2362730159564517	-0.01334716159382297	-90.8044462217629	0	0.9399999998679526	0	43.15964231390551	-12.22027469525367	0	57.68398558072101	1.006775474056515	-6.064201083827936	0	0	43.15964231390551	-12.22027469525367	0	57.68398558072101	1.006775474056515	-6.064201083827936	0	0	0.288052385452073	-0.2688730385001036	0.07881654832300547	-0.4967041298807628	0.1227433098396814	1.245799964341098	0.4308052234713617	6.754104375403964	0	0	0	-8.494751857851647	0	83.32158090671578	6.754104375403964	0	0
0.11	0.2430535966933611	-0.01561845381794465	-90.8148933422049	0	0.9399999998679526	0	43.16002679070127	-12.21865422949305	0	57.68436643346649	1.006782121190889	-6.063190623944826	0	0	43.16002679070127	-12.21865422949305	0	57.68436643346649	1.006782121190889	-6.063190623944826	0	0	0.2963277791204872	-0.2992351092857833	-0.02829824652992539	-0.5226853379630041	0.1988104626157239	1.421885597822497	0.3987726144543666	6.753117053964747	0	0	0	-8.495450777526349	0	83.32255702036379	6.753117053964747	0	0
0.12	0.3387421561096048	-0.08484727502784903	-91.15618908066409	0	0.9399999998679526	0	43.16041604881705	-12.21705177506594	0	57.68475924955505	1.006788977124989	-6.062195836212528	0	0	43.16041604881705	-12.21705177506594	0	57.68475924955505	1.006788977124989	-6.062195836212528	0	0	0.2986206981811589	-0.3961840944688976	0.1939492829072262	-0.5827302027151046	0.2143598463721599	1.603619705857506	0.4003253367233131	6.752110393949883	0	0	0	-8.496167836657561	0	83.32355225802161	6.752110393949883	0	0
0.13	0.418228414706368	-0.03473488951594634	-91.58492471598443	0	0.9399999998679526	0	43.16089930467172	-12.21503339276185	0	57.68524111470823	1.006797387258463	-6.060939656627983	0	0	43.16089930467172	-12.21503339276185	0	57.68524111470823	1.006797387258463	-6.060939656627983	0	0	0.373809042877301	-0.5252613500649366	0.4430786495693685	-0.5996394227423842	0.2987168753145802	1.811965828000119	0.3937564428224756	6.750866219563353	0	0	0	-8.497050569575254	0	83.32478231116232	6.750866219563353	0	0
0.14	0.5083970115480528	-0.1018140721402023	-92.18504736947536	0	0.9399999998679526	0	43.16137793587994	-12.21303980031183	0	57.68571920726056	1.00680573154763	-6.059699710028164	0	0	43.16137793587994	-12.21303980031183	0	57.68571920726056	1.00680573154763	-6.059699710028164	0	0	0.347136416322835	-0.6842924712858243	0.7436431387125054	-0.5874474497908889	0.3813828519977289	2.171731974209883	0.3762761379794221	6.74963306969261	0	0	0	-8.497926020706101	0	83.32600146554661	6.74963306969261	0	0
0.15	0.4864431538555186	-0.1170889439167807	-92.15839721122221	0	0.9399999998679526	0	43.161684075131	-12.21177720092209	0	57.68602708728213	1.006811105067708	-6.058916119629261	0	0	43.161684075131	-12.21177720092209	0	57.68602708728213	1.006811105067708	-6.058916119629261	0	0	0.4210248464286555	-0.6791704693171067	0.5463031133023101	-0.6919724534318316	0.4092057976340261	2.408412299827203	0.3807434180689787	6.7488422325618	0	0	0	-8.498488744381115	0	83.32678332861994	6.7488422325618	0	0
0.16	0.5128411669612122	-0.09717824516718467	-92.30929161523285	0	0.9399999998679526	0	43.1622046050662	-12.20959462218016	0	57.68654382350995	1.006820123816247	-6.057557309642866	0	0	43.1622046050662	-12.20959462218016	0	57.68654382350995	1.006820123816247	-6.057557309642866	0	0	0.4982472555112655	-0.7455203089751155	0.4460790228040414	-0.7319078686954312	0.4580397720040851	2.690732079396788	0.3755123137625188	6.747504120946312	0	0	0	-8.499436802064977	0	83.32810625144667	6.747504120946312	0	0
